<svg width="72" height="63" viewBox="0 0 72 63" fill="none" xmlns="http://www.w3.org/2000/svg">
<path d="M24.7541 63.0009C25.8632 62.5174 26.6401 61.4003 26.6401 60.1V51.568C26.6401 51.2567 26.6651 50.9328 26.7041 50.6042C26.6822 50.6105 26.662 50.6153 26.6401 50.62C26.6401 50.62 21.9601 50.62 21.0241 50.62C18.6841 50.62 16.6561 49.672 15.7201 47.776C14.6281 45.722 14.1601 42.246 11.3521 40.35C10.8841 40.034 11.1961 39.56 12.1321 39.56C13.0681 39.718 15.0961 40.982 16.3441 42.72C17.7481 44.458 19.1521 45.88 21.6481 45.88C25.5278 45.88 27.6073 45.6825 28.8584 45.0031C30.3155 42.8085 32.3326 41.14 34.4401 41.14V41.1005C25.598 40.8129 19.9493 37.8362 17.3191 33.24C11.6017 33.3064 6.62376 33.8799 3.783 34.3571C3.69252 33.8404 3.61452 33.3206 3.54744 32.7976C6.35076 32.3299 11.1025 31.7753 16.5656 31.6695C16.3909 31.2334 16.2396 30.7863 16.1117 30.3281C10.6345 30.0468 5.90772 30.2664 3.33996 30.4813C3.30876 29.9568 3.26664 29.4338 3.2604 28.9029C5.83284 28.6896 10.4317 28.4763 15.7685 28.7275C15.6452 27.9375 15.5657 27.1301 15.5657 26.2896C15.5657 23.6036 16.5017 20.7596 18.2177 18.3896C17.4377 15.7036 16.3457 10.0156 18.5297 7.96158C22.7417 7.96158 25.7057 10.0156 27.1097 11.2796C29.7601 10.172 32.7241 9.54 36.0001 9.54C39.2761 9.54 42.2401 10.172 44.7361 11.278C46.1401 10.014 49.1041 7.96 53.3161 7.96C55.6561 10.172 54.4081 15.86 53.6281 18.388C55.3441 20.758 56.2801 23.444 56.1241 26.288C56.1241 27.0527 56.0539 27.7906 55.9525 28.5142C61.411 28.2425 66.1346 28.4605 68.7508 28.6754C68.7476 29.2078 68.6993 29.7277 68.6712 30.2538C66.0644 30.0358 61.2222 29.8114 55.6312 30.1132C55.4923 30.6441 55.3238 31.1607 55.1242 31.6616C60.6559 31.7343 65.5216 32.2762 68.459 32.7502C68.392 33.2748 68.314 33.7946 68.2235 34.3097C65.2408 33.8262 60.1567 33.2605 54.3722 33.2321C51.7748 37.7793 46.229 40.745 37.5601 41.091V41.14C41.6161 41.14 45.3601 47.302 45.3601 51.568V60.1C45.3601 61.4003 46.137 62.5174 47.2462 63.0009C61.5373 58.2103 71.8801 44.5591 71.8801 28.5C71.8801 8.46244 55.7856 -7.84 36.0001 -7.84C16.2146 -7.84 0.120117 8.46244 0.120117 28.5C0.120117 44.5591 10.4629 58.2103 24.7541 63.0009Z" fill="#27AE60"/>
</svg>
