<svg width="100" height="100" viewBox="0 0 100 100" fill="none" xmlns="http://www.w3.org/2000/svg">
<path d="M89.9249 25.775C88.9666 22.1917 86.1416 19.3667 82.5583 18.4083C76.0583 16.6667 49.9999 16.6667 49.9999 16.6667C49.9999 16.6667 23.9416 16.6667 17.4416 18.4083C13.8583 19.3667 11.0333 22.1917 10.0749 25.775C8.33325 32.275 8.33325 50 8.33325 50C8.33325 50 8.33325 67.725 10.0749 74.225C11.0333 77.8084 13.8583 80.6334 17.4416 81.5917C23.9416 83.3334 49.9999 83.3334 49.9999 83.3334C49.9999 83.3334 76.0583 83.3334 82.5583 81.5917C86.1458 80.6334 88.9666 77.8084 89.9249 74.225C91.6666 67.725 91.6666 50 91.6666 50C91.6666 50 91.6666 32.275 89.9249 25.775ZM41.6666 60.825V39.175C41.6666 37.5708 43.4041 36.5708 44.7916 37.3708L63.5416 48.1958C64.9291 48.9958 64.9291 51.0042 63.5416 51.8042L44.7916 62.6292C43.4041 63.4334 41.6666 62.4292 41.6666 60.825Z" fill="#27AE60"/>
</svg>
