


<svg xmlns="http://www.w3.org/2000/svg" xmlns:xlink="http://www.w3.org/1999/xlink" version="1.1" width="66" height="65" viewBox="0 0 66 65" fill="none" xml:space="preserve">
	<a xlink:href="https://twitter.com/a7med__khalid" xlink:show="new">

<path d="M11 0C4.92486 0 0 4.85024 0 10.8333V54.1667C0 60.1498 4.92486 65 11 65H55C61.0751 65 66 60.1498 66 54.1667V10.8333C66 4.85024 61.0751 0 55 0H11ZM14.2779 13.9286H26.7511L35.6088 26.3246L46.3571 13.9286H50.2857L37.3828 28.8063L53.2935 51.0714H40.8234L30.5446 36.6895L18.0714 51.0714H14.1429L28.7706 34.2078L14.2779 13.9286ZM20.2935 17.0238L42.4623 47.9762H47.2779L25.1091 17.0238H20.2935Z" fill="#27AE60"/>
	</a>
</svg>