
<svg xmlns="http://www.w3.org/2000/svg" xmlns:xlink="http://www.w3.org/1999/xlink" version="1.1" width="78" height="78" viewBox="0 0 78 78" fill="none"  xml:space="preserve">
	<a xlink:href="https://www.linkedin.com/in/ahmed-khalid-25a0a417b/" xlink:show="new">

<path d="M68.25 60.125C68.25 64.6132 64.6132 68.25 60.125 68.25H17.875C13.3884 68.25 9.75 64.6132 9.75 60.125V17.875C9.75 13.3867 13.3884 9.75 17.875 9.75H60.125C64.6132 9.75 68.25 13.3867 68.25 17.875V60.125Z" fill="#27AE60"/>
<path opacity="0.05" d="M48.75 60.125V43.7141C48.75 40.9695 47.4191 39.3299 45.188 39.3299C43.8636 39.3299 42.8902 40.0757 42.2971 41.5464C42.2695 41.6504 42.2305 42.0745 42.2467 43.3566L42.25 60.125H30.875V29.25H42.25V30.9741C43.9107 29.8285 45.9469 29.25 48.3242 29.25C55.7131 29.25 60.1234 34.2761 60.1234 42.6952L60.125 60.125H48.75ZM17.875 60.125V29.25H23.4926C20.2377 29.25 17.875 26.858 17.875 23.5609C17.875 20.267 20.2767 17.875 23.5852 17.875C26.8547 17.875 29.1834 20.2004 29.25 23.5284C29.25 26.8499 26.8466 29.25 23.5381 29.25H29.25V60.125H17.875Z" fill="black"/>
<path opacity="0.07" d="M49.5625 59.3125V43.7141C49.5625 40.508 47.8871 38.5174 45.188 38.5174C43.0836 38.5174 42.0436 39.9994 41.5431 41.2425C41.4099 41.5659 41.4277 42.8496 41.4342 43.3972L41.4375 59.3125H31.6875V30.0625H41.4375V32.7243C42.7294 31.3869 44.8094 30.0625 48.3243 30.0625C55.2029 30.0625 59.3109 34.7848 59.3109 42.6953L59.3125 59.3125H49.5625ZM18.6875 59.3125V30.0625H28.4375V59.3125H18.6875ZM23.4926 28.4375C20.709 28.4375 18.6875 26.3867 18.6875 23.5609C18.6875 20.7366 20.748 18.6875 23.5852 18.6875C26.3867 18.6875 28.3806 20.6846 28.4375 23.5446C28.4375 26.3868 26.377 28.4375 23.5381 28.4375H23.4926Z" fill="black"/>
<path d="M19.5 30.875H27.625V58.5H19.5V30.875ZM23.5381 27.625H23.4926C21.0681 27.625 19.5 25.818 19.5 23.5609C19.5 21.255 21.1169 19.5 23.5852 19.5C26.0569 19.5 27.5795 21.255 27.625 23.5609C27.625 25.8164 26.0569 27.625 23.5381 27.625ZM58.5 58.5H50.375V43.7141C50.375 40.1424 48.3844 37.7049 45.188 37.7049C42.7489 37.7049 41.4294 39.3494 40.7891 40.9386C40.5551 41.5074 40.625 43.0804 40.625 43.875V58.5H32.5V30.875H40.625V35.126C41.7966 33.3125 43.6312 30.875 48.3242 30.875C54.1385 30.875 58.4984 34.5312 58.4984 42.6952L58.5 58.5Z" fill="#171717"/>
	</a>
</svg>