<svg width="100" height="103" viewBox="0 0 100 103" fill="none" xmlns="http://www.w3.org/2000/svg">
<path d="M98.1024 32.1279L52.3993 0.744971C50.8394 -0.243792 49.1745 -0.252845 47.6003 0.744971L1.89726 32.1279C0.725389 32.9324 0 34.3696 0 35.8063V67.1891C0 68.626 0.725389 70.063 1.89746 70.8677L47.6005 102.255C49.1605 103.244 50.8253 103.253 52.3995 102.255L98.1025 70.8677C99.2744 70.0632 100 68.626 100 67.1891V35.8063C99.9998 34.3696 99.2744 32.9324 98.1024 32.1279ZM54.2968 12.7001L87.9463 35.8063L72.9352 46.1524L54.2968 33.3347V12.7001ZM45.703 12.7001V33.3347L27.0646 46.1524L12.0535 35.8063L45.703 12.7001ZM8.59373 44.0832L19.3638 51.4978L8.59373 58.9124V44.0832ZM45.703 90.2955L12.0535 67.1892L27.0646 56.8431L45.703 69.6609V90.2955ZM49.9999 61.9588L34.8212 51.4978L49.9999 41.0368L65.1786 51.4978L49.9999 61.9588ZM54.2968 90.2955V69.6609L72.9352 56.8431L87.9463 67.1892L54.2968 90.2955ZM91.4061 58.9124L80.636 51.4978L91.4061 44.0832V58.9124Z" fill="#27AE60"/>
</svg>
