<svg width="100" height="100" viewBox="0 0 100 100" fill="none" xmlns="http://www.w3.org/2000/svg">
<path d="M64.4375 4.125L62.875 4.75L57.25 6.9375L55.6875 7.5625L56.0625 9.1875L57.25 15.1875C56.6641 15.7734 56.0391 16.4609 55.375 17.1875L49.4375 15.875L47.8125 15.5L47.1875 17L44.75 22.625L44.125 24.125L45.5 25.0625L50.625 28.5C50.5625 29.4766 50.5703 30.4609 50.625 31.4375L45.375 34.6875L43.9375 35.5625L44.5625 37.125L46.75 42.75L47.375 44.3125L49 43.9375L55 42.75C55.6094 43.4766 56.2812 44.1328 57 44.75L55.625 50.75L55.25 52.375L56.8125 53.0625L62.4375 55.4375L63.9375 56.0625L64.875 54.6875L68.3125 49.5625C69.2891 49.625 70.2734 49.6172 71.25 49.5625L74.5 54.875L75.375 56.25L76.9375 55.6875L84.125 52.8125L83.75 51.1875L82.375 44.625C83.125 43.9922 83.8047 43.3125 84.4375 42.5625L90.5 44.125L92.1875 44.5625L92.8125 43L95.25 37.375L95.9375 35.8125L94.4375 34.875L89.1875 31.6875C89.25 30.7109 89.2422 29.7266 89.1875 28.75L94.4375 25.5L95.875 24.625L95.25 23.0625L93.0625 17.4375L92.4375 15.875L90.75 16.25L84.625 17.625C84.0156 16.8984 83.3438 16.2422 82.625 15.625L83.9375 9.625L84.3125 8L82.8125 7.375L77.1875 4.9375L75.625 4.3125L74.6875 5.75L71.5 10.8125C70.5781 10.7188 69.5781 10.8047 68.5625 10.875L65.3125 5.5625L64.4375 4.125ZM62.75 9.0625L65.6875 13.875L66.4375 15.0625L67.8125 14.75C69.2266 14.4375 70.5625 14.6094 72.375 14.8125L73.625 14.9375L74.3125 13.875L77.1875 9.3125L79.6875 10.375L78.4375 15.75L78.125 17.0625L79.25 17.8125C80.4766 18.6875 81.5 19.7109 82.375 20.9375L83.125 22.0625L84.4375 21.75L89.9375 20.5L90.9375 23L86.125 25.875L85.0625 26.5625L85.1875 27.8125C85.375 29.4844 85.375 30.8906 85.1875 32.5625L85.0625 33.8125L86.125 34.5L90.875 37.4375L89.875 39.8125L84.3125 38.4375L82.9375 38.125L82.1875 39.25C81.3125 40.4766 80.2891 41.5 79.0625 42.375L78 43.125L78.25 44.4375L79.5 50.375L77 51.3125L74.125 46.5625L73.4375 45.5L72.1875 45.625C70.5156 45.8125 69.1094 45.8125 67.4375 45.625L66.1875 45.5L65.5625 46.5L62.5 51.125L59.9375 50L61.125 44.625L61.4375 43.375L60.375 42.5625C59.1484 41.6875 58.125 40.6641 57.25 39.4375L56.5 38.375L55.1875 38.625L49.8125 39.75L48.875 37.25L53.625 34.3125L54.75 33.625L54.5625 32.375C54.375 30.7031 54.375 29.2969 54.5625 27.625L54.75 26.4375L53.6875 25.75L49.0625 22.6875L50.125 20.125L55.5625 21.375L56.75 21.625L57.5 20.6875C58.6406 19.3594 59.8125 18.1875 60.8125 17.1875L61.5625 16.4375L61.375 15.4375L60.25 10.0625L62.75 9.0625ZM70 20C64.5 20 60 24.5 60 30C60 35.5 64.5 40 70 40C75.5 40 80 35.5 80 30C80 24.5 75.5 20 70 20ZM70 24C73.3359 24 76 26.6641 76 30C76 33.3359 73.3359 36 70 36C66.6641 36 64 33.3359 64 30C64 26.6641 66.6641 24 70 24ZM27.0625 40L26.8125 41.6875L25.8125 48.1875C24.7266 48.5312 23.6797 49.0312 22.6875 49.5625L15.8125 44.5625L8.8125 51.5625L9.75 52.9375L13.5625 58.4375C13.0234 59.5078 12.5469 60.5781 12.1875 61.625L5.625 62.8125L4 63.125V72.875L5.625 73.1875L12.1875 74.375C12.5391 75.4688 13.0234 76.4922 13.5625 77.5L9.625 82.8125L8.5625 84.1875L15.5625 91.1875L16.9375 90.25L22.4375 86.4375C23.5078 86.9766 24.5781 87.4531 25.625 87.8125L26.625 94.3125L26.875 96H36.6875L36.9375 94.375L38.1875 87.8125C39.2734 87.4688 40.3203 86.9688 41.3125 86.4375L48.1875 91.4375L55.1875 84.4375L54.25 83.0625L50.25 77.5C50.7734 76.4453 51.2734 75.4062 51.625 74.375L58.375 73.1875L60 72.875V63.0625L51.5625 61.8125C51.2188 60.7344 50.7812 59.6797 50.25 58.6875L54.25 53.1875L55.1875 51.8125L54.0625 50.625L49.4375 45.8125L48.25 44.5625L46.8125 45.5625L41.3125 49.5625C40.2578 49.0391 39.2188 48.5391 38.1875 48.1875L37.1875 41.6875L36.9375 40H27.0625ZM30.5 44H33.5L34.625 51.125L35.75 51.5C37.5469 52.1016 39.2266 52.6641 40.5625 53.5L41.6875 54.1875L42.75 53.4375L47.75 49.8125L50 52.1875L46.375 57.25L45.5625 58.3125L46.3125 59.4375C47.2109 60.875 47.9141 62.5391 48.25 64.0625L48.5625 65.375L49.875 65.5625L56 66.5V69.5625L49.875 70.625L48.6875 70.8125L48.3125 71.9375C47.7109 73.7344 47.1484 75.4141 46.3125 76.75L45.5625 77.875L46.375 78.9375L50 84L47.75 86.1875L42.75 82.5625L41.6875 81.8125L40.5625 82.5C39.125 83.3984 37.4609 84.1016 35.9375 84.4375L34.6875 84.75L34.4375 86.0625L33.375 92H30.3125L29.1875 84.875L28.0625 84.5C26.2656 83.8984 24.5859 83.3359 23.25 82.5L22.125 81.8125L21.0625 82.5625L16 86L13.8125 83.8125L17.375 79L18.25 77.875L17.5 76.75C16.6016 75.3125 15.8984 73.7109 15.5625 72.1875L15.25 70.875L13.9375 70.625L8 69.5625V66.4375L13.9375 65.375L15.125 65.125L15.5 64.0625C16.1016 62.2656 16.6641 60.5859 17.5 59.25L18.1875 58.125L17.4375 57.0625L14 52L16.25 49.8125L21.25 53.4375L22.3125 54.1875L23.4375 53.5C24.875 52.6016 26.5391 51.8984 28.0625 51.5625L29.375 51.25L29.5625 49.9375L30.5 44ZM32 58C26.5078 58 22 62.5078 22 68C22 73.4922 26.5078 78 32 78C37.4922 78 42 73.4922 42 68C42 62.5078 37.4922 58 32 58ZM32 62C35.3125 62 38 64.6875 38 68C38 71.3125 35.3125 74 32 74C28.6875 74 26 71.3125 26 68C26 64.6875 28.6875 62 32 62Z" fill="#27AE60"/>
</svg>
