
<svg xmlns="http://www.w3.org/2000/svg" xmlns:xlink="http://www.w3.org/1999/xlink" version="1.1" width="66" height="66" viewBox="0 0 66 66" fill="none" xml:space="preserve">
	<a xlink:href="https://wa.me/message/VENQWFYQPBWEN1" xlink:show="new">

        <path d="M56.0002 10.016C49.2337 3.24625 40.0037 -0.169501 30.3122 0.610499C17.283 1.657 5.86246 10.718 2.04046 23.2175C-0.689538 32.1485 0.457712 41.4727 4.90371 49.1752L0.691712 63.16C0.288712 64.5022 1.51396 65.7665 2.86921 65.4057L17.5072 61.483C22.249 64.07 27.5855 65.4317 33.0195 65.435H33.0325C46.6662 65.435 59.2632 57.0955 63.6215 44.1767C67.866 31.5797 64.7265 18.752 56.0002 10.016ZM48.9185 44.5505C48.2425 46.4452 44.9307 48.2717 43.4422 48.405C41.9537 48.5415 40.5595 49.0777 33.7085 46.377C25.4632 43.127 20.2567 34.6737 19.8537 34.1342C19.4475 33.5915 16.542 29.737 16.542 25.746C16.542 21.755 18.6382 19.792 19.3825 18.9827C20.1267 18.1702 21.0042 17.9687 21.547 17.9687C22.0865 17.9687 22.6292 17.9687 23.1005 17.9882C23.679 18.011 24.3192 18.0402 24.927 19.389C25.6485 20.9945 27.2247 25.005 27.4262 25.4112C27.6277 25.8175 27.7642 26.292 27.4945 26.8315C27.2247 27.371 27.0882 27.709 26.6852 28.1835C26.279 28.658 25.8337 29.2397 25.4697 29.6037C25.0635 30.0067 24.641 30.4487 25.1122 31.258C25.5867 32.0705 27.2117 34.7257 29.6232 36.874C32.7237 39.6365 35.3335 40.4912 36.146 40.9007C36.9585 41.307 37.4297 41.2387 37.9042 40.696C38.3787 40.1565 39.9322 38.33 40.4717 37.5175C41.0112 36.705 41.554 36.8415 42.2982 37.1112C43.0425 37.381 47.0302 39.344 47.8395 39.7502C48.652 40.1565 49.1915 40.358 49.393 40.696C49.5945 41.0307 49.5945 42.6557 48.9185 44.5505Z" fill="#27AE60"/>
	</a>
</svg>